<svg width="50" height="48" viewBox="0 0 50 48" fill="none" xmlns="http://www.w3.org/2000/svg">
<path d="M4.08518 28.2707C3.13944 27.8889 2.42357 27.0733 1.95209 26.1828C1.27775 24.9106 0.998047 23.3736 0.998047 21.9426C0.998047 20.5117 1.27498 18.974 1.95209 17.7017C2.42357 16.812 3.13876 15.9957 4.08518 15.6145C5.44591 11.0995 8.22299 7.143 12.0053 4.33076C15.7876 1.51852 20.3741 0 25.0859 0C29.7976 0 34.3841 1.51852 38.1664 4.33076C41.9487 7.143 44.7258 11.0995 46.0865 15.6145C47.0323 15.9963 47.7482 16.8126 48.2197 17.7024C48.894 18.9747 49.1737 20.5117 49.1737 21.9433C49.1737 23.375 48.8968 24.9113 48.2197 26.1835C47.7482 27.074 47.0323 27.8896 46.0865 28.2714C45.0429 31.7421 43.1558 34.8996 40.5942 37.4615C40.1244 37.9318 39.6333 38.3808 39.1209 38.8086L39.1161 39.2244C39.0849 41.6871 38.4528 44.3945 36.1653 45.7306C33.1128 47.5128 28.5801 48 25.0879 48C21.5958 48 17.0644 47.5149 14.0105 45.7306C11.7258 44.3945 11.0903 41.6865 11.0598 39.2236L11.0549 38.8079C10.544 38.381 10.0529 37.932 9.58164 37.4607C7.01851 34.8994 5.13001 31.7418 4.08518 28.2707Z" fill="white" fill-opacity="0.88"/>
<path d="M44.9226 26.8428C46.3576 26.8428 47.5209 24.649 47.5209 21.9429C47.5209 19.2367 46.3576 17.043 44.9226 17.043C43.4875 17.043 42.3242 19.2367 42.3242 21.9429C42.3242 24.649 43.4875 26.8428 44.9226 26.8428Z" fill="#231D35"/>
<path d="M5.25068 26.8428C6.68573 26.8428 7.84903 24.649 7.84903 21.9429C7.84903 19.2367 6.68573 17.043 5.25068 17.043C3.81566 17.043 2.65234 19.2367 2.65234 21.9429C2.65234 24.649 3.81566 26.8428 5.25068 26.8428Z" fill="#231D35"/>
<path d="M25.0868 42.2339C20.3966 42.2337 15.8514 40.6058 12.2259 37.6276C8.60042 34.6493 6.1188 30.5049 5.2039 25.9006C4.28902 21.2963 4.99749 16.517 7.20858 12.3769C9.41969 8.23673 12.9966 4.9921 17.3299 3.19572C21.6632 1.39935 26.4848 1.16241 30.973 2.52527C35.4613 3.88813 39.3385 6.76648 41.9442 10.6699C44.5499 14.5732 45.7227 19.2602 45.2629 23.932C44.8031 28.6039 42.739 32.9716 39.4224 36.2911C37.5416 38.1778 35.3071 39.674 32.8469 40.6939C30.3868 41.7137 27.7496 42.2371 25.0868 42.2339Z" fill="#231D35"/>
<path d="M25.0856 40.5738C29.3923 40.5738 33.5657 39.0792 36.8948 36.3446C40.2239 33.61 42.5026 29.8047 43.3428 25.577C44.183 21.3493 43.5326 16.9608 41.5024 13.1593C39.4723 9.35774 36.188 6.37834 32.2092 4.72879C28.2304 3.07923 23.8032 2.86154 19.682 4.11283C15.5608 5.36413 12.0005 8.00695 9.60787 11.591C7.21523 15.1751 6.13822 19.4787 6.56038 23.7684C6.9825 28.0582 8.87768 32.0688 11.9229 35.1167C13.6495 36.8495 15.7012 38.2237 17.9601 39.1602C20.219 40.0967 22.6406 40.5771 25.0856 40.5738Z" fill="white" fill-opacity="0.88"/>
<path d="M25.0861 40.5731H25.3264L25.5666 40.5682C25.6462 40.5682 25.7259 40.5641 25.8055 40.5606C25.8851 40.5572 25.9647 40.5544 26.0444 40.5502C26.1239 40.5461 26.2022 40.5419 26.2818 40.5364L26.5186 40.5204L26.754 40.501C26.8329 40.4934 26.9111 40.4865 26.9894 40.4782C27.0676 40.4698 27.1458 40.4622 27.2234 40.4532L27.4567 40.4248C27.535 40.4151 27.6118 40.4047 27.6893 40.3936C27.7669 40.3832 27.8437 40.3714 27.9213 40.3597C27.9981 40.3479 28.075 40.3361 28.1518 40.3229C28.2286 40.3098 28.3048 40.2973 28.381 40.2834L28.6101 40.2411L28.8379 40.1961L29.0643 40.1483C29.1398 40.1317 29.2146 40.1151 29.29 40.097C29.3648 40.0797 29.4403 40.0624 29.515 40.0437L29.7379 39.9883L29.9609 39.9293L30.1824 39.8677L30.4026 39.8039L30.6214 39.7346L30.8395 39.6653C30.9122 39.6417 30.9841 39.6182 31.0562 39.596C31.1254 39.5718 31.2002 39.5468 31.2722 39.5219L31.4861 39.445L31.6994 39.3653L31.9112 39.2828L32.1189 39.1982C32.1881 39.1698 32.2574 39.1407 32.3266 39.1109C32.3958 39.0811 32.4651 39.052 32.5343 39.0216L32.742 38.9294L32.9497 38.8351L33.1532 38.7381C33.2225 38.7049 33.2917 38.6688 33.3561 38.6383C33.4205 38.6079 33.4946 38.5691 33.5576 38.5372L33.7577 38.4333C33.8269 38.3979 33.8906 38.3639 33.9564 38.3265C34.0221 38.2891 34.0879 38.2572 34.153 38.2177L34.3489 38.1069C34.414 38.0694 34.4784 38.0313 34.5428 37.9932L34.736 37.8782L34.927 37.7603L35.1167 37.6398L35.3043 37.5178L35.4913 37.3931L35.6762 37.267L35.8589 37.1381L36.041 37.0071L36.221 36.8741L36.3989 36.7355L36.5755 36.5969L36.7507 36.4583C36.8088 36.4119 36.8663 36.3647 36.9237 36.3197L37.0954 36.1763L37.265 36.0307L37.4333 35.8831L37.5995 35.7335C37.6541 35.6835 37.7095 35.633 37.7635 35.5824C37.8182 35.5318 37.8722 35.4805 37.9262 35.4293C37.9802 35.378 38.0335 35.326 38.0869 35.274L38.2461 35.1167C38.2987 35.064 38.3506 35.0114 38.4026 34.958C38.4552 34.9047 38.5064 34.8513 38.5576 34.7972C38.6096 34.7432 38.6601 34.6892 38.7106 34.6344L38.8616 34.4702L39.0104 34.3039C39.0603 34.248 39.1094 34.1919 39.1579 34.1355C39.207 34.0793 39.2548 34.0225 39.3033 33.9657L39.4466 33.7938L39.5851 33.6206L39.7235 33.4453C39.7699 33.3864 39.8149 33.3275 39.862 33.2686C39.9077 33.209 39.9527 33.1501 40.0005 33.0898C40.0455 33.0302 40.0898 32.9699 40.1334 32.9096C40.1777 32.8493 40.2213 32.7891 40.2642 32.7281C40.3078 32.6671 40.3501 32.6061 40.393 32.5445C40.4355 32.4835 40.4777 32.4218 40.5197 32.3594C40.5613 32.2978 40.6028 32.2354 40.6436 32.173C40.6845 32.1106 40.7253 32.0476 40.7662 31.9846C40.8064 31.9215 40.8465 31.8584 40.886 31.7947C40.9254 31.7309 40.9649 31.6679 41.0037 31.6034C41.0424 31.539 41.0812 31.4752 41.1193 31.4108C41.1574 31.3463 41.1948 31.2812 41.2321 31.2168C41.2695 31.1523 41.3069 31.0872 41.3429 31.0213C41.3796 30.952 41.4163 30.8904 41.4516 30.8239C41.4869 30.7573 41.5209 30.6915 41.5582 30.6257C41.5956 30.5598 41.6275 30.4919 41.6621 30.4254C41.6967 30.3588 41.7313 30.2909 41.7639 30.2237C41.7964 30.1565 41.8331 30.0852 41.8629 30.0207C41.8926 29.9562 41.9279 29.8821 41.9598 29.8128C41.9916 29.7435 42.0235 29.6742 42.0539 29.6049C42.0851 29.5356 42.1155 29.4663 42.146 29.397C42.1765 29.3277 42.2063 29.2584 42.236 29.1891C42.2651 29.1199 42.2942 29.0505 42.3226 28.9812C42.3509 28.912 42.3794 28.8427 42.4077 28.7734C42.4354 28.7041 42.4624 28.6348 42.4894 28.5613C42.5164 28.4879 42.5427 28.4227 42.569 28.3479C42.5954 28.2786 42.621 28.2052 42.6459 28.1331C42.6715 28.0638 42.6957 27.9896 42.7207 27.9176C42.7449 27.8483 42.7691 27.7727 42.7899 27.7007C42.8107 27.6286 42.8363 27.5552 42.8591 27.4824C42.882 27.4096 42.9041 27.3362 42.9284 27.2627L42.9928 27.0423C43.0135 26.9689 43.0336 26.8947 43.0537 26.8206C43.0738 26.7465 43.0931 26.6723 43.1125 26.5982C43.1319 26.524 43.1506 26.4492 43.1686 26.3744C43.1866 26.2995 43.2046 26.2247 43.2219 26.1498C43.2392 26.075 43.2559 26.0002 43.2725 25.9246C43.2891 25.8491 43.305 25.7736 43.3202 25.6973C43.3362 25.6218 43.3507 25.5456 43.3652 25.4693C43.3798 25.3931 43.3943 25.3169 43.4081 25.2407L43.4476 25.0106C43.4601 24.9337 43.4726 24.8568 43.4843 24.7798C43.4961 24.7029 43.5071 24.6253 43.5182 24.5484C43.5286 24.4708 43.539 24.3932 43.5487 24.3155C43.5584 24.2379 43.5681 24.1597 43.5771 24.082C43.5861 24.0044 43.5944 23.9261 43.6027 23.8478C43.611 23.7695 43.6179 23.6905 43.6248 23.6122C43.6318 23.5332 43.638 23.4549 43.6443 23.3759C43.6505 23.2969 43.656 23.2179 43.6609 23.1389C43.6657 23.0599 43.6706 22.9809 43.674 22.9012C43.6775 22.8215 43.6816 22.7425 43.6851 22.6628C43.6886 22.5831 43.6906 22.5035 43.6927 22.4238C43.6948 22.3441 43.6927 22.2637 43.6969 22.1833C43.701 22.1029 43.6969 22.0232 43.6969 21.9429C43.6969 21.8625 43.6969 21.7821 43.6969 21.7017C43.6969 21.6213 43.6969 21.5416 43.6927 21.4619C43.6886 21.3823 43.6878 21.3019 43.6851 21.2222C43.6823 21.1425 43.6782 21.0635 43.674 20.9838C43.6698 20.9041 43.6657 20.8251 43.6609 20.7461C43.656 20.6671 43.6505 20.5881 43.6443 20.5091C43.638 20.4301 43.6318 20.3511 43.6248 20.2728C43.6179 20.1945 43.6103 20.1155 43.6027 20.0379C43.5951 19.9603 43.5861 19.8813 43.5771 19.803C43.5681 19.7247 43.5591 19.6471 43.5487 19.5694C43.5383 19.4918 43.5286 19.4142 43.5182 19.3366C43.5079 19.259 43.4961 19.1821 43.4843 19.1052C43.4726 19.0283 43.4601 18.9513 43.4476 18.8744L43.4081 18.6444C43.3943 18.5681 43.3798 18.4919 43.3652 18.4157C43.3507 18.3394 43.3362 18.2632 43.3202 18.1877C43.3043 18.1122 43.2891 18.036 43.2725 17.9604C43.2559 17.8849 43.2392 17.81 43.2219 17.7345C43.2046 17.659 43.1866 17.5848 43.1686 17.51C43.1506 17.4352 43.1319 17.3603 43.1125 17.2862C43.0931 17.212 43.0738 17.1379 43.0537 17.0637C43.0336 16.9896 43.0135 16.9154 42.9928 16.842L42.9284 16.6216C42.9069 16.5481 42.884 16.4754 42.8591 16.4019C42.8342 16.3285 42.8134 16.2564 42.7899 16.1837C42.7663 16.1109 42.7421 16.0388 42.7207 15.9668C42.6992 15.8947 42.6715 15.8227 42.6459 15.7513C42.621 15.682 42.5954 15.6078 42.569 15.5364C42.5427 15.4651 42.5164 15.3937 42.4894 15.323C42.4624 15.2523 42.4354 15.1844 42.4077 15.111C42.38 15.0375 42.3517 14.9724 42.3226 14.9031C42.2935 14.8338 42.2651 14.7645 42.236 14.6952C42.2063 14.6259 42.1765 14.5566 42.146 14.4873C42.1155 14.418 42.0851 14.3487 42.0539 14.2794C42.0235 14.2101 41.9916 14.1408 41.9598 14.0715C41.9279 14.0022 41.8954 13.9329 41.8629 13.8636C41.8303 13.7943 41.7971 13.725 41.7639 13.6606C41.7306 13.5961 41.6946 13.5262 41.6621 13.459C41.6295 13.3917 41.5928 13.3252 41.5582 13.2594C41.5236 13.1935 41.489 13.1263 41.4516 13.0605C41.4142 12.9947 41.3824 12.9288 41.3429 12.863C41.3034 12.7972 41.2695 12.732 41.2321 12.6676C41.1948 12.6032 41.1574 12.5373 41.1193 12.4729C41.0812 12.4084 41.0424 12.344 41.0037 12.2802C40.9649 12.2165 40.9254 12.152 40.886 12.089C40.8465 12.0259 40.8064 11.9622 40.7662 11.8991C40.726 11.836 40.6852 11.7737 40.6436 11.7106C40.6021 11.6475 40.5613 11.5859 40.5197 11.5242L40.393 11.3392C40.3501 11.2775 40.3078 11.2165 40.2642 11.1556C40.2213 11.0946 40.1777 11.0343 40.1334 10.974C40.0898 10.9137 40.0455 10.8534 40.0005 10.7938C39.9543 10.7342 39.9082 10.6746 39.862 10.6151C39.8163 10.5561 39.7713 10.4972 39.7235 10.4383L39.5851 10.263L39.4466 10.0898L39.3033 9.91794L39.1579 9.74816C39.1094 9.69201 39.0603 9.63587 39.0104 9.58045C38.9613 9.5243 38.9114 9.46888 38.8616 9.41414L38.7106 9.24923C38.6601 9.19516 38.6096 9.14041 38.5576 9.08639C38.5064 9.03299 38.4552 8.97897 38.4026 8.92558C38.3506 8.87296 38.2987 8.81956 38.2461 8.76689L38.0869 8.6096C38.0335 8.55765 37.9802 8.50566 37.9262 8.45438C37.8722 8.40311 37.8182 8.35184 37.7635 8.30124C37.7095 8.25064 37.6541 8.20005 37.5995 8.15017L37.4333 8.0005L37.2713 7.85291L37.1017 7.70806C37.0449 7.65954 36.9874 7.61174 36.93 7.56462C36.8725 7.51682 36.815 7.46969 36.7569 7.42604C36.6987 7.38239 36.6406 7.33247 36.5817 7.28747C36.5236 7.24126 36.4647 7.19505 36.4051 7.14884C36.3463 7.10312 36.2868 7.05807 36.2272 7.01027L36.0472 6.87791C35.987 6.83354 35.926 6.78989 35.8651 6.74691C35.8042 6.7035 35.7433 6.66052 35.6824 6.61803L35.4975 6.49122C35.4352 6.44897 35.3729 6.40807 35.3106 6.36649L35.123 6.24456L34.9332 6.12465C34.8695 6.08447 34.8059 6.04564 34.7422 6.00686C34.6785 5.96803 34.6141 5.92925 34.549 5.89115C34.484 5.853 34.4202 5.81489 34.3551 5.77746L34.1592 5.66662C34.0942 5.62987 34.0284 5.59384 33.9626 5.55781C33.8968 5.52178 33.8304 5.48849 33.7639 5.45179L33.5638 5.34717C33.4946 5.31321 33.4302 5.27786 33.3623 5.24598C33.2945 5.21409 33.2239 5.17666 33.1595 5.14618C33.0951 5.1157 33.021 5.08174 32.956 5.04986C32.8909 5.01798 32.8175 4.98614 32.7482 4.95493L32.5405 4.86276L32.3329 4.77338C32.2636 4.74359 32.1944 4.71448 32.1251 4.68607L31.9174 4.60153C31.8482 4.57381 31.779 4.5461 31.7056 4.51976L31.4923 4.43937L31.2777 4.36246L31.0617 4.28831L30.845 4.21901L30.6269 4.14972C30.5577 4.12685 30.4815 4.10468 30.4082 4.08042C30.3347 4.05617 30.2614 4.03677 30.188 4.01598L29.9664 3.9543C29.8923 3.93421 29.8183 3.91481 29.7435 3.8961C29.6687 3.87739 29.5947 3.85798 29.5206 3.83997C29.4465 3.82195 29.3704 3.80393 29.2955 3.78661L29.0698 3.73533L28.8435 3.68752L28.6157 3.64247L28.3865 3.6002C28.3103 3.58634 28.2335 3.57317 28.1573 3.5607L27.9268 3.52398L27.6949 3.49002C27.6173 3.47893 27.5405 3.46854 27.4623 3.45884L27.2289 3.43043C27.1514 3.42211 27.0731 3.4131 26.9949 3.40548C26.9167 3.39786 26.8384 3.39023 26.7595 3.38331C26.6806 3.37638 26.6024 3.36945 26.5241 3.36321L26.2874 3.34727C26.2084 3.34173 26.1288 3.33757 26.0499 3.33341L25.811 3.32302C25.7314 3.32302 25.6518 3.31748 25.5722 3.3154L25.3319 3.31055H25.0917H24.8653H24.8321H24.6341H24.587H24.569L24.4471 3.31401H24.4125H24.3259H24.2567H24.2221H24.2048H24.1875L24.0837 3.31886H24.0663H24.0324H24.0151H23.9978H23.9805C28.7174 3.60106 33.1678 5.68336 36.4221 9.14017C39.6763 12.597 41.4887 17.1673 41.4887 21.9169C41.4887 26.6665 39.6763 31.2367 36.4221 34.6936C33.1678 38.1504 28.7174 40.2327 23.9805 40.5149H23.9978H24.0151H24.0324H24.0663H24.0837L24.1875 40.5197H24.2048H24.2221H24.2567H24.3259H24.4125H24.4471H24.569H24.587H24.6341L24.8321 40.5232H24.8653H25.0917L25.0861 40.5731Z" fill="#50F9D1"/>
<path d="M25.0858 40.5734C25.4592 40.5734 25.8285 40.5623 26.1935 40.5401C21.4566 40.258 17.0062 38.1756 13.7519 34.7188C10.4977 31.262 8.68537 26.6918 8.68537 21.9422C8.68537 17.1925 10.4977 12.6223 13.7519 9.1655C17.0062 5.70869 21.4566 3.62636 26.1935 3.34415C25.8243 3.32198 25.4551 3.31089 25.0858 3.31089C22.6318 3.29591 20.199 3.76676 17.9274 4.69636C15.6558 5.62597 13.5904 6.99595 11.8498 8.72749C10.1092 10.4591 8.72786 12.518 7.78525 14.7859C6.84265 17.0538 6.35742 19.4859 6.35742 21.9422C6.35742 24.3985 6.84265 26.8305 7.78525 29.0984C8.72786 31.3663 10.1092 33.4252 11.8498 35.1568C13.5904 36.8884 15.6558 38.2584 17.9274 39.188C20.199 40.1176 22.6318 40.5884 25.0858 40.5734Z" fill="#A930FC"/>
<path d="M13.5609 12.821C16.5144 10.0179 20.5895 8.28418 25.0862 8.28418C29.5829 8.28418 33.658 10.0166 36.6115 12.821C39.565 15.6254 41.4087 19.5226 41.4087 23.8189C41.4087 28.1153 39.5747 32.0042 36.6115 34.8169C33.6483 37.6296 29.5864 39.3544 25.0862 39.3544C20.586 39.3544 16.5144 37.622 13.5609 34.8169C10.6074 32.0118 8.76367 28.1153 8.76367 23.8189C8.76367 19.5226 10.5977 15.6337 13.5609 12.821Z" fill="#231D35"/>
<path d="M38.1614 29.3704C38.9688 27.5852 39.4129 25.6568 39.4679 23.6979C39.5648 20.0557 38.2743 16.4509 35.5741 13.7476C32.874 11.0444 29.2739 9.75342 25.6322 9.84974C23.6744 9.90376 21.7472 10.3483 19.9633 11.1574C19.8236 11.218 19.7121 11.3296 19.6513 11.4694C19.5906 11.6093 19.5853 11.7669 19.6363 11.9106C19.6873 12.0543 19.7909 12.1732 19.9261 12.2433C20.0614 12.3134 20.2182 12.3295 20.3649 12.2883C21.4443 12.0053 22.5526 11.8471 23.668 11.817C27.3076 11.72 30.9092 13.0117 33.6093 15.715C36.3094 18.4182 37.5999 22.0209 37.5037 25.6652C37.4731 26.7818 37.3148 27.8913 37.0322 28.972C36.9943 29.1178 37.0125 29.2726 37.0831 29.4056C37.1538 29.5387 37.2717 29.6404 37.4137 29.6905C37.5556 29.7407 37.7112 29.7357 37.8497 29.6766C37.9881 29.6174 38.0994 29.5084 38.1614 29.3712V29.3704Z" fill="white" fill-opacity="0.88"/>
<path d="M37.4585 39.2072C37.4357 41.0394 37.05 43.2957 35.3289 44.3046C32.5727 45.9137 28.2276 46.3482 25.0823 46.3482C21.937 46.3482 17.5954 45.9137 14.8357 44.3046C13.1146 43.2991 12.7282 41.0387 12.7061 39.2072L12.668 36.1582L15.2538 37.77C18.2039 39.6027 21.6068 40.5738 25.0788 40.5738C28.5508 40.5738 31.9538 39.6027 34.9038 37.77L37.4897 36.1582L37.4516 39.2072H37.4585Z" fill="#231D35"/>
<path d="M14.3789 39.1865C14.3949 40.4768 14.6226 42.2445 15.6826 42.8634C17.7561 44.0747 21.4075 44.6803 25.0852 44.6803C28.7629 44.6803 32.4143 44.0747 34.4878 42.8634C35.5478 42.2445 35.7756 40.4768 35.7915 39.1865C32.577 41.184 28.8688 42.2425 25.0852 42.2425C21.3016 42.2425 17.5934 41.184 14.3789 39.1865Z" fill="white" fill-opacity="0.88"/>
<path d="M14.3803 39.1865C14.3963 40.4768 14.624 42.2445 15.684 42.8634C17.7575 44.0747 21.4089 44.6803 25.0866 44.6803C25.2251 44.6803 25.3636 44.6803 25.502 44.6803C21.9669 44.636 18.5094 44.0317 16.5155 42.8661C15.5885 42.3249 15.2983 40.9023 15.2298 39.691C14.9418 39.5302 14.6582 39.363 14.3789 39.1893L14.3803 39.1865Z" fill="#A930FC"/>
<path d="M35.7916 39.1865C35.7757 40.4768 35.548 42.2445 34.488 42.8634C32.411 44.0747 28.7631 44.6803 25.0853 44.6803C24.9469 44.6803 24.8084 44.6803 24.6699 44.6803C28.205 44.636 31.6626 44.0317 33.6558 42.8661C34.5835 42.3249 34.8736 40.9023 34.9422 39.691C35.2292 39.5284 35.5124 39.3602 35.7916 39.1865Z" fill="#50F9D1"/>
</svg>
