<svg width="24" height="24" viewBox="0 0 24 24" fill="currentColor" xmlns="http://www.w3.org/2000/svg"><path d="M15.0678 1.37462C15.0378 1.26043 14.9779 1.15627 14.8944 1.07278C14.8109 0.98928 14.7068 0.929437 14.5926 0.899356C13.225 0.544149 11.7849 0.582406 10.4381 1.00972C9.0913 1.43704 7.89258 2.23604 6.97995 3.31473L6.23666 4.19728L4.50013 3.7783C4.07795 3.63112 3.61678 3.64166 3.20178 3.808C2.78678 3.97433 2.44598 4.2852 2.24231 4.68322L0.77552 7.28315C0.724126 7.37422 0.694877 7.4761 0.690138 7.58056C0.685399 7.68502 0.705303 7.78914 0.74824 7.88448C0.791178 7.97983 0.855945 8.06374 0.937307 8.12943C1.01867 8.19512 1.11434 8.24074 1.2166 8.26262L3.2651 8.70174C3.09157 9.22997 2.96767 9.77323 2.89499 10.3245C2.88181 10.4257 2.89207 10.5287 2.92497 10.6254C2.95788 10.722 3.01254 10.8099 3.08476 10.8821L5.15149 12.9488C5.21337 13.0107 5.28685 13.0599 5.36772 13.0934C5.4486 13.1269 5.53528 13.1442 5.62283 13.1441C5.64203 13.1441 5.66124 13.1432 5.68077 13.1415C6.24433 13.0909 6.80105 12.9814 7.34182 12.8149L7.77094 14.817C7.79287 14.9192 7.83852 15.0149 7.90422 15.0962C7.96992 15.1775 8.05383 15.2423 8.14916 15.2852C8.24449 15.3281 8.34859 15.348 8.45303 15.3433C8.55748 15.3386 8.65935 15.3094 8.75043 15.2581L11.3539 13.7896C11.7204 13.567 12.0066 13.2337 12.1714 12.8379C12.3361 12.442 12.3709 12.0041 12.2706 11.5872L11.8248 9.74784L12.6495 8.9895C13.7322 8.07943 14.5343 6.88064 14.9624 5.53258C15.3905 4.18453 15.4271 2.74263 15.0678 1.37462ZM2.38197 7.14871L3.4194 5.30887C3.48384 5.18396 3.59362 5.08845 3.72624 5.0419C3.85885 4.99535 4.00425 5.00131 4.13261 5.05854L5.27755 5.33601L4.84422 5.85054C4.43339 6.34292 4.07807 6.87907 3.78467 7.44928L2.38197 7.14871ZM10.6954 12.6302L8.88489 13.6513L8.59856 12.3149C9.17897 12.0254 9.71972 11.6624 10.2075 11.2349L10.7032 10.7792L10.9721 11.8889C11.007 12.0259 10.9992 12.1704 10.9498 12.3028C10.9003 12.4353 10.8116 12.5495 10.6954 12.6302ZM11.7716 7.98662L9.31523 10.2441C8.34294 11.085 7.14365 11.6194 5.86829 11.7802L4.26543 10.1774C4.48071 8.89869 5.03324 7.7006 5.86601 6.7067L6.98491 5.37825C7.00355 5.35875 7.02095 5.33809 7.03699 5.3164L7.99362 4.18062C8.70093 3.34521 9.61728 2.71249 10.6491 2.34704C11.6809 1.9816 12.7912 1.89654 13.8667 2.10054C14.0756 3.17935 13.9914 4.29445 13.623 5.32968C13.2545 6.36492 12.6152 7.28242 11.7716 7.98662ZM11.1563 3.87744C10.9585 3.87744 10.7652 3.93609 10.6007 4.04597C10.4363 4.15585 10.3081 4.31203 10.2324 4.49476C10.1567 4.67748 10.1369 4.87855 10.1755 5.07253C10.2141 5.26651 10.3093 5.4447 10.4492 5.58455C10.589 5.7244 10.7672 5.81964 10.9612 5.85823C11.1552 5.89681 11.3562 5.87701 11.539 5.80132C11.7217 5.72563 11.8779 5.59746 11.9878 5.43301C12.0976 5.26856 12.1563 5.07522 12.1563 4.87744C12.1563 4.74612 12.1304 4.61607 12.0802 4.49474C12.0299 4.37341 11.9563 4.26316 11.8634 4.1703C11.7705 4.07744 11.6603 4.00378 11.539 3.95353C11.4176 3.90328 11.2876 3.87742 11.1563 3.87743L11.1563 3.87744Z" fill="currentColor"></path></svg>