<svg class="sc-cxpSdN jSdxHZ MuiSvgIcon-root MuiSvgIcon-fontSizeSmall" focusable="false" viewBox="0 0 16 16" aria-hidden="true" data-testid="SVGIconIcon"><svg width="24" height="24" viewBox="0 0 24 24" fill="currentColor" xmlns="http://www.w3.org/2000/svg"><path d="M13.9997 2.66659H11.9997V1.99992C11.9997 1.82311 11.9294 1.65354 11.8044 1.52851C11.6794 1.40349 11.5098 1.33325 11.333 1.33325H4.66634C4.48953 1.33325 4.31996 1.40349 4.19494 1.52851C4.06991 1.65354 3.99967 1.82311 3.99967 1.99992V2.66659H1.99967C1.82286 2.66659 1.65329 2.73682 1.52827 2.86185C1.40325 2.98687 1.33301 3.15644 1.33301 3.33325V5.33325C1.33301 6.0405 1.61396 6.71877 2.11406 7.21887C2.61415 7.71897 3.29243 7.99992 3.99967 7.99992H5.02634C5.62936 8.67268 6.44238 9.12149 7.33301 9.27325V10.6666H6.66634C6.13591 10.6666 5.6272 10.8773 5.25213 11.2524C4.87705 11.6274 4.66634 12.1362 4.66634 12.6666V13.9999C4.66634 14.1767 4.73658 14.3463 4.8616 14.4713C4.98663 14.5963 5.1562 14.6666 5.33301 14.6666H10.6663C10.8432 14.6666 11.0127 14.5963 11.1377 14.4713C11.2628 14.3463 11.333 14.1767 11.333 13.9999V12.6666C11.333 12.1362 11.1223 11.6274 10.7472 11.2524C10.3721 10.8773 9.86344 10.6666 9.33301 10.6666H8.66634V9.27325C9.55697 9.12149 10.37 8.67268 10.973 7.99992H11.9997C12.7069 7.99992 13.3852 7.71897 13.8853 7.21887C14.3854 6.71877 14.6663 6.0405 14.6663 5.33325V3.33325C14.6663 3.15644 14.5961 2.98687 14.4711 2.86185C14.3461 2.73682 14.1765 2.66659 13.9997 2.66659ZM3.99967 6.66659C3.64605 6.66659 3.30691 6.52611 3.05687 6.27606C2.80682 6.02601 2.66634 5.68687 2.66634 5.33325V3.99992H3.99967V5.33325C4.00114 5.78772 4.08005 6.23862 4.23301 6.66659H3.99967ZM9.33301 11.9999C9.50982 11.9999 9.67939 12.0702 9.80441 12.1952C9.92944 12.3202 9.99967 12.4898 9.99967 12.6666V13.3333H5.99967V12.6666C5.99967 12.4898 6.06991 12.3202 6.19494 12.1952C6.31996 12.0702 6.48953 11.9999 6.66634 11.9999H9.33301ZM10.6663 5.33325C10.6663 6.0405 10.3854 6.71877 9.88529 7.21887C9.3852 7.71897 8.70692 7.99992 7.99967 7.99992C7.29243 7.99992 6.61415 7.71897 6.11406 7.21887C5.61396 6.71877 5.33301 6.0405 5.33301 5.33325V2.66659H10.6663V5.33325ZM13.333 5.33325C13.333 5.68687 13.1925 6.02601 12.9425 6.27606C12.6924 6.52611 12.3533 6.66659 11.9997 6.66659H11.7663C11.9193 6.23862 11.9982 5.78772 11.9997 5.33325V3.99992H13.333V5.33325Z" fill="currentColor"></path></svg></svg>