<svg width="109" height="42" viewBox="0 0 109 42" fill="none" xmlns="http://www.w3.org/2000/svg">
<g clip-path="url(#clip0_108:3133)">
<path d="M3.28682 24.7208C2.43309 24.387 1.78685 23.6739 1.36123 22.8954C0.752494 21.7832 0.5 20.4394 0.5 19.1884C0.5 17.9374 0.749993 16.593 1.36123 15.4807C1.78685 14.7029 2.43246 13.9892 3.28682 13.656C4.51518 9.70872 7.02212 6.2497 10.4365 3.79108C13.8509 1.33246 17.9912 0.00488281 22.2446 0.00488281C26.498 0.00488281 30.6383 1.33246 34.0527 3.79108C37.4671 6.2497 39.974 9.70872 41.2024 13.656C42.0561 13.9898 42.7024 14.7035 43.128 15.4814C43.7367 16.5936 43.9892 17.9374 43.9892 19.189C43.9892 20.4406 43.7392 21.7838 43.128 22.896C42.7024 23.6746 42.0561 24.3876 41.2024 24.7214C40.2603 27.7556 38.5568 30.5162 36.2443 32.7559C35.8202 33.167 35.3769 33.5596 34.9144 33.9336L34.91 34.2971C34.8819 36.4502 34.3112 38.8172 32.2463 39.9852C29.4907 41.5434 25.3989 41.9693 22.2465 41.9693C19.094 41.9693 15.0035 41.5452 12.2467 39.9852C10.1842 38.8172 9.61047 36.4496 9.58294 34.2965L9.57859 33.933C9.11734 33.5598 8.67401 33.1672 8.2486 32.7552C5.9348 30.516 4.23001 27.7554 3.28682 24.7208Z" fill="white"/>
<path d="M40.1503 23.4718C41.4457 23.4718 42.4959 21.5539 42.4959 19.1881C42.4959 16.8222 41.4457 14.9043 40.1503 14.9043C38.8548 14.9043 37.8047 16.8222 37.8047 19.1881C37.8047 21.5539 38.8548 23.4718 40.1503 23.4718Z" fill="#231D35"/>
<path d="M4.33776 23.4718C5.63322 23.4718 6.68335 21.5539 6.68335 19.1881C6.68335 16.8222 5.63322 14.9043 4.33776 14.9043C3.04234 14.9043 1.99219 16.8222 1.99219 19.1881C1.99219 21.5539 3.04234 23.4718 4.33776 23.4718Z" fill="#231D35"/>
<path d="M22.2437 36.9269C18.0097 36.9267 13.9067 35.5035 10.6339 32.8998C7.36103 30.296 5.12082 26.6727 4.29492 22.6474C3.46904 18.622 4.10859 14.4436 6.10459 10.8241C8.10061 7.20458 11.3296 4.36793 15.2413 2.79743C19.1531 1.22694 23.5056 1.01979 27.5572 2.21128C31.6089 3.40278 35.109 5.91919 37.4612 9.33178C39.8134 12.7443 40.8722 16.8419 40.4571 20.9263C40.042 25.0107 38.1787 28.8293 35.1847 31.7313C33.4869 33.3808 31.4697 34.6889 29.2489 35.5805C27.0281 36.4721 24.6474 36.9297 22.2437 36.9269Z" fill="#231D35"/>
<path d="M22.2456 35.4761C26.1333 35.4761 29.9007 34.1695 32.906 31.7787C35.9112 29.388 37.9683 26.0612 38.7267 22.3651C39.4852 18.669 38.8981 14.8323 37.0654 11.5088C35.2328 8.18524 32.268 5.58048 28.6761 4.13835C25.0844 2.69621 21.0879 2.50589 17.3675 3.59984C13.6472 4.6938 10.4333 7.00431 8.27341 10.1377C6.11351 13.2711 5.14126 17.0335 5.52236 20.7839C5.90341 24.5343 7.61424 28.0405 10.3632 30.7053C11.9219 32.2202 13.774 33.4215 15.8132 34.2403C17.8524 35.059 20.0384 35.479 22.2456 35.4761Z" fill="white"/>
<path d="M22.2442 35.4755H22.4611L22.678 35.4713C22.7498 35.4713 22.8217 35.4676 22.8936 35.4646C22.9654 35.4616 23.0373 35.4592 23.1092 35.4555C23.1811 35.4519 23.2517 35.4483 23.3236 35.4434L23.5373 35.4295L23.7498 35.4125C23.821 35.4058 23.8917 35.3998 23.9623 35.3925C24.0329 35.3852 24.1036 35.3786 24.1736 35.3707L24.3842 35.3459C24.4548 35.3374 24.5242 35.3283 24.5942 35.3186C24.6642 35.3095 24.7335 35.2992 24.8036 35.2889C24.8729 35.2786 24.9423 35.2683 25.0117 35.2568C25.081 35.2453 25.1498 35.2344 25.2185 35.2223L25.4254 35.1853L25.631 35.146L25.8354 35.1041C25.9035 35.0896 25.971 35.0751 26.0391 35.0593C26.1066 35.0442 26.1748 35.029 26.2423 35.0127L26.4435 34.9642L26.6448 34.9127L26.8448 34.8588L27.0435 34.803L27.241 34.7425L27.4379 34.6819C27.5035 34.6613 27.5685 34.6407 27.6335 34.6213C27.696 34.6001 27.7635 34.5783 27.8285 34.5565L28.0216 34.4892L28.2141 34.4196L28.4053 34.3475L28.5929 34.2735C28.6553 34.2487 28.7178 34.2233 28.7803 34.1972C28.8428 34.1712 28.9053 34.1457 28.9678 34.1191L29.1553 34.0385L29.3428 33.9561L29.5266 33.8713C29.5891 33.8422 29.6516 33.8107 29.7097 33.784C29.7678 33.7574 29.8347 33.7235 29.8916 33.6956L30.0722 33.6047C30.1347 33.5738 30.1922 33.5441 30.2516 33.5114C30.3109 33.4787 30.3703 33.4508 30.4291 33.4163L30.6059 33.3194C30.6647 33.2867 30.7228 33.2533 30.7809 33.22L30.9553 33.1195L31.1278 33.0164L31.2991 32.9111L31.4684 32.8044L31.6372 32.6954L31.8041 32.5851L31.9691 32.4724L32.1334 32.3579L32.2959 32.2416L32.4565 32.1204L32.6159 31.9993L32.774 31.8781C32.8265 31.8375 32.8784 31.7963 32.9303 31.757L33.0852 31.6315L33.2384 31.5043L33.3902 31.3753L33.5403 31.2444C33.5896 31.2008 33.6396 31.1566 33.6884 31.1124C33.7378 31.0681 33.7865 31.0233 33.8353 30.9785C33.884 30.9337 33.9321 30.8882 33.9803 30.8428L34.124 30.7052C34.1715 30.6592 34.2184 30.6132 34.2652 30.5665C34.3127 30.5198 34.359 30.4732 34.4052 30.4259C34.4521 30.3787 34.4977 30.3314 34.5434 30.2836L34.6796 30.14L34.814 29.9946C34.859 29.9457 34.9034 29.8967 34.9471 29.8474C34.9915 29.7983 35.0346 29.7486 35.0784 29.699L35.2077 29.5487L35.3327 29.3973L35.4577 29.244C35.4996 29.1925 35.5402 29.141 35.5827 29.0895C35.624 29.0374 35.6646 28.9859 35.7077 28.9332C35.7484 28.8811 35.7883 28.8284 35.8277 28.7757C35.8677 28.723 35.9071 28.6703 35.9458 28.6169C35.9852 28.5636 36.0233 28.5103 36.0621 28.4564C36.1004 28.4031 36.1385 28.3492 36.1765 28.2946C36.214 28.2408 36.2514 28.1862 36.2883 28.1317C36.3252 28.0771 36.3621 28.022 36.399 27.9669C36.4352 27.9118 36.4714 27.8566 36.5071 27.8009C36.5427 27.7452 36.5783 27.69 36.6133 27.6337C36.6483 27.5774 36.6833 27.5216 36.7177 27.4653C36.7521 27.4089 36.7858 27.352 36.8196 27.2957C36.8533 27.2393 36.8871 27.1824 36.9196 27.1248C36.9527 27.0642 36.9858 27.0103 37.0177 26.9522C37.0495 26.894 37.0802 26.8364 37.114 26.7789C37.1477 26.7213 37.1765 26.662 37.2077 26.6038C37.2389 26.5456 37.2702 26.4862 37.2996 26.4275C37.3289 26.3687 37.3621 26.3064 37.3889 26.25C37.4158 26.1936 37.4477 26.1288 37.4764 26.0682C37.5052 26.0077 37.5339 25.9471 37.5614 25.8865C37.5896 25.8259 37.617 25.7653 37.6446 25.7047C37.6721 25.6442 37.6989 25.5836 37.7258 25.523C37.752 25.4624 37.7783 25.4018 37.8039 25.3412C37.8295 25.2807 37.8552 25.2201 37.8808 25.1595C37.9058 25.0989 37.9302 25.0383 37.9546 24.9741C37.9789 24.9099 38.0027 24.853 38.0264 24.7875C38.0502 24.727 38.0733 24.6627 38.0958 24.5997C38.1189 24.5392 38.1408 24.4743 38.1633 24.4113C38.1852 24.3507 38.2071 24.2847 38.2258 24.2217C38.2445 24.1587 38.2677 24.0945 38.2883 24.0309C38.3089 23.9673 38.3289 23.903 38.3508 23.8388L38.4089 23.6461C38.4277 23.5819 38.4458 23.5171 38.4639 23.4523C38.482 23.3875 38.4995 23.3226 38.5171 23.2578C38.5345 23.193 38.5514 23.1276 38.5677 23.0622C38.5839 22.9967 38.6002 22.9313 38.6158 22.8659C38.6314 22.8004 38.6464 22.735 38.6614 22.669C38.6764 22.6029 38.6908 22.5369 38.7045 22.4702C38.7189 22.4042 38.732 22.3376 38.7452 22.2709C38.7583 22.2043 38.7714 22.1376 38.7839 22.071L38.8195 21.8699C38.8308 21.8026 38.842 21.7354 38.8527 21.6681C38.8633 21.6009 38.8733 21.533 38.8833 21.4658C38.8927 21.3979 38.902 21.3301 38.9108 21.2622C38.9195 21.1944 38.9283 21.1259 38.9364 21.0581C38.9445 20.9902 38.952 20.9218 38.9595 20.8533C38.967 20.7848 38.9733 20.7158 38.9795 20.6473C38.9858 20.5782 38.9914 20.5098 38.997 20.4407C39.0027 20.3717 39.0077 20.3026 39.012 20.2336C39.0164 20.1645 39.0208 20.0954 39.0239 20.0258C39.027 19.956 39.0308 19.887 39.0339 19.8173C39.0371 19.7477 39.0389 19.678 39.0408 19.6083C39.0427 19.5387 39.0408 19.4684 39.0445 19.3981C39.0483 19.3278 39.0445 19.2582 39.0445 19.1879C39.0445 19.1176 39.0445 19.0473 39.0445 18.9771C39.0445 18.9068 39.0445 18.8371 39.0408 18.7674C39.0371 18.6978 39.0364 18.6275 39.0339 18.5578C39.0314 18.4882 39.0277 18.4191 39.0239 18.3494C39.0201 18.2798 39.0164 18.2107 39.012 18.1416C39.0077 18.0725 39.0027 18.0035 38.997 17.9344C38.9914 17.8654 38.9858 17.7963 38.9795 17.7279C38.9733 17.6594 38.9664 17.5903 38.9595 17.5225C38.9526 17.4546 38.9445 17.3855 38.9364 17.3171C38.9283 17.2487 38.9202 17.1808 38.9108 17.1129C38.9014 17.0451 38.8927 16.9772 38.8833 16.9094C38.8739 16.8415 38.8633 16.7743 38.8527 16.707C38.842 16.6398 38.8308 16.5725 38.8195 16.5053L38.7839 16.3042C38.7714 16.2375 38.7583 16.1709 38.7452 16.1042C38.732 16.0376 38.7189 15.9709 38.7045 15.9049C38.6902 15.8389 38.6764 15.7722 38.6614 15.7062C38.6464 15.6402 38.6314 15.5747 38.6158 15.5087C38.6002 15.4427 38.5839 15.3778 38.5677 15.3124C38.5514 15.247 38.5345 15.1815 38.5171 15.1167C38.4995 15.0519 38.482 14.9871 38.4639 14.9222C38.4458 14.8574 38.4277 14.7926 38.4089 14.7284L38.3508 14.5357C38.3314 14.4715 38.3108 14.4079 38.2883 14.3437C38.2658 14.2795 38.247 14.2165 38.2258 14.1529C38.2045 14.0892 38.1827 14.0262 38.1633 13.9632C38.1439 13.9002 38.1189 13.8372 38.0958 13.7748C38.0733 13.7142 38.0502 13.6494 38.0264 13.587C38.0027 13.5246 37.9789 13.4622 37.9546 13.4004C37.9302 13.3386 37.9058 13.2793 37.8808 13.215C37.8558 13.1508 37.8302 13.0939 37.8039 13.0333C37.7777 12.9727 37.752 12.9122 37.7258 12.8516C37.6989 12.791 37.6721 12.7304 37.6446 12.6698C37.617 12.6092 37.5896 12.5486 37.5614 12.4881C37.5339 12.4275 37.5052 12.3669 37.4764 12.3063C37.4477 12.2457 37.4183 12.1851 37.3889 12.1246C37.3595 12.064 37.3296 12.0034 37.2996 11.947C37.2696 11.8907 37.2371 11.8295 37.2077 11.7708C37.1783 11.712 37.1452 11.6538 37.114 11.5963C37.0827 11.5387 37.0514 11.48 37.0177 11.4224C36.9839 11.3649 36.9552 11.3073 36.9196 11.2497C36.8839 11.1922 36.8533 11.1352 36.8196 11.0789C36.7858 11.0226 36.7521 10.965 36.7177 10.9087C36.6833 10.8523 36.6483 10.796 36.6133 10.7403C36.5783 10.6845 36.5427 10.6282 36.5071 10.5731C36.4714 10.5179 36.4352 10.4622 36.399 10.407C36.3627 10.3519 36.3258 10.2974 36.2883 10.2422C36.2508 10.1871 36.214 10.1332 36.1765 10.0793L36.0621 9.91754C36.0233 9.86361 35.9852 9.81031 35.9458 9.75701C35.9071 9.70366 35.8677 9.65095 35.8277 9.59824C35.7883 9.54557 35.7484 9.49286 35.7077 9.44074C35.6661 9.38866 35.6244 9.33654 35.5827 9.28447C35.5415 9.23294 35.5009 9.18145 35.4577 9.12996L35.3327 8.97668L35.2077 8.82525L35.0784 8.675L34.9471 8.52657C34.9034 8.47748 34.859 8.4284 34.814 8.37995C34.7696 8.33086 34.7246 8.28241 34.6796 8.23455L34.5434 8.09037C34.4977 8.0431 34.4521 7.99524 34.4052 7.94801C34.359 7.90133 34.3127 7.8541 34.2652 7.80742C34.2184 7.76142 34.1715 7.71474 34.124 7.66869L33.9803 7.53118C33.9321 7.48576 33.884 7.4403 33.8353 7.39548C33.7865 7.35065 33.7378 7.30583 33.6884 7.26159C33.6396 7.21736 33.5896 7.17312 33.5403 7.12952L33.3902 6.99867L33.244 6.86963L33.0909 6.743C33.0396 6.70058 32.9877 6.65879 32.9359 6.61759C32.884 6.5758 32.8321 6.5346 32.7797 6.49644C32.7272 6.45828 32.6747 6.41463 32.6215 6.37529C32.569 6.33489 32.5159 6.2945 32.4621 6.2541C32.409 6.21412 32.3553 6.17474 32.3015 6.13295L32.139 6.01724C32.0846 5.97844 32.0296 5.94028 31.9747 5.90271C31.9197 5.86475 31.8647 5.82718 31.8097 5.79003L31.6428 5.67917C31.5865 5.64223 31.5303 5.60647 31.4741 5.57012L31.3047 5.46352L31.1334 5.35869C31.0759 5.32356 31.0184 5.28962 30.9609 5.25571C30.9034 5.22177 30.8453 5.18786 30.7865 5.15455C30.7278 5.12119 30.6703 5.08788 30.6115 5.05516L30.4347 4.95825C30.376 4.92612 30.3166 4.89462 30.2572 4.86312C30.1978 4.83162 30.1378 4.80253 30.0778 4.77044L29.8972 4.67897C29.8347 4.64928 29.7766 4.61838 29.7153 4.5905C29.6541 4.56263 29.5903 4.52991 29.5322 4.50325C29.4741 4.4766 29.4072 4.44692 29.3485 4.41904C29.2897 4.39117 29.2234 4.36334 29.161 4.33606L28.9735 4.25547L28.786 4.17733C28.7235 4.15129 28.661 4.12584 28.5985 4.101L28.411 4.02709C28.3485 4.00286 28.286 3.97863 28.2197 3.9556L28.0272 3.88532L27.8335 3.81808L27.6385 3.75326L27.4429 3.69267L27.246 3.63209C27.1835 3.6121 27.1147 3.59271 27.0485 3.57151C26.9822 3.55031 26.916 3.53334 26.8498 3.51517L26.6498 3.46125C26.5829 3.44368 26.516 3.42672 26.4485 3.41036C26.381 3.394 26.3142 3.37704 26.2473 3.36129C26.1804 3.34553 26.1117 3.32978 26.0441 3.31464L25.8404 3.26981L25.636 3.22801L25.4304 3.18863L25.2235 3.15167C25.1548 3.13955 25.0854 3.12804 25.0167 3.11714L24.8086 3.08503L24.5992 3.05534C24.5292 3.04565 24.4598 3.03656 24.3892 3.02808L24.1785 3.00324C24.1086 2.99597 24.0379 2.9881 23.9673 2.98143C23.8967 2.97477 23.826 2.9681 23.7548 2.96205C23.6836 2.95599 23.613 2.94993 23.5423 2.94448L23.3286 2.93054C23.2573 2.9257 23.1855 2.92206 23.1142 2.91843L22.8986 2.90934C22.8267 2.90934 22.7548 2.9045 22.683 2.90268L22.4661 2.89844H22.2492H22.0449H22.0149H21.8361H21.7936H21.7774L21.6673 2.90147H21.6361H21.558H21.4955H21.4642H21.4486H21.433L21.3392 2.90571H21.3236H21.293H21.2774H21.2617H21.2461C25.5223 3.15242 29.5397 4.97289 32.4774 7.99503C35.4151 11.0172 37.0512 15.0128 37.0512 19.1652C37.0512 23.3175 35.4151 27.3131 32.4774 30.3353C29.5397 33.3574 25.5223 35.1779 21.2461 35.4246H21.2617H21.2774H21.293H21.3236H21.3392L21.433 35.4289H21.4486H21.4642H21.4955H21.558H21.6361H21.6673H21.7774H21.7936H21.8361L22.0149 35.4319H22.0449H22.2492L22.2442 35.4755Z" fill="#50F9D1"/>
<path d="M22.2444 35.4758C22.5815 35.4758 22.9148 35.4661 23.2444 35.4467C18.9682 35.2 14.9507 33.3795 12.0131 30.3574C9.0754 27.3352 7.43938 23.3397 7.43938 19.1873C7.43938 15.0349 9.0754 11.0393 12.0131 8.01718C14.9507 4.99503 18.9682 3.17454 23.2444 2.92782C22.9111 2.90843 22.5778 2.89874 22.2444 2.89874C20.0291 2.88564 17.8329 3.29729 15.7824 4.10999C13.7318 4.92271 11.8672 6.12043 10.296 7.63425C8.7247 9.1481 7.47773 10.9482 6.62682 12.9309C5.77591 14.9136 5.33789 17.0398 5.33789 19.1873C5.33789 21.3347 5.77591 23.461 6.62682 25.4437C7.47773 27.4264 8.7247 29.2265 10.296 30.7403C11.8672 32.2541 13.7318 33.4519 15.7824 34.2646C17.8329 35.0773 20.0291 35.4889 22.2444 35.4758Z" fill="#A930FC"/>
<path d="M11.8403 11.2134C14.5065 8.76282 18.1852 7.24707 22.2445 7.24707C26.3038 7.24707 29.9825 8.76164 32.6487 11.2134C35.3148 13.6652 36.9792 17.0723 36.9792 20.8285C36.9792 24.5846 35.3236 27.9845 32.6487 30.4435C29.9737 32.9026 26.3069 34.4105 22.2445 34.4105C18.1821 34.4105 14.5065 32.8959 11.8403 30.4435C9.1741 27.9911 7.50977 24.5846 7.50977 20.8285C7.50977 17.0723 9.16536 13.6724 11.8403 11.2134Z" fill="#231D35"/>
<path d="M34.0473 25.6818C34.7762 24.121 35.1771 22.4351 35.2267 20.7225C35.3142 17.5383 34.1492 14.3868 31.7117 12.0235C29.2743 9.66019 26.0244 8.5315 22.7369 8.61571C20.9697 8.66294 19.2299 9.05161 17.6195 9.7589C17.4934 9.81195 17.3928 9.90949 17.3379 10.0317C17.2831 10.154 17.2782 10.2918 17.3243 10.4174C17.3704 10.543 17.4639 10.647 17.586 10.7083C17.7081 10.7696 17.8496 10.7836 17.982 10.7476C18.9565 10.5002 19.9569 10.362 20.9638 10.3356C24.2494 10.2508 27.5006 11.3801 29.938 13.7434C32.3755 16.1068 33.5405 19.2565 33.4536 22.4425C33.426 23.4187 33.2831 24.3887 33.028 25.3335C32.9938 25.461 33.0102 25.5963 33.074 25.7126C33.1378 25.8289 33.2442 25.9178 33.3724 25.9617C33.5005 26.0056 33.641 26.0012 33.766 25.9495C33.8909 25.8978 33.9914 25.8025 34.0473 25.6825V25.6818Z" fill="white"/>
<path d="M33.4141 34.2809C33.3935 35.8827 33.0454 37.8553 31.4917 38.7373C29.0036 40.1441 25.0812 40.5239 22.2419 40.5239C19.4025 40.5239 15.4832 40.1441 12.992 38.7373C11.4383 37.8583 11.0896 35.8821 11.0696 34.2809L11.0352 31.6152L13.3695 33.0244C16.0325 34.6266 19.1045 35.4756 22.2387 35.4756C25.373 35.4756 28.4449 34.6266 31.108 33.0244L33.4423 31.6152L33.4079 34.2809H33.4141Z" fill="#231D35"/>
<path d="M12.5801 34.2627C12.5945 35.3908 12.8001 36.9362 13.7569 37.4772C15.6288 38.5362 18.925 39.0657 22.2449 39.0657C25.5649 39.0657 28.861 38.5362 30.7329 37.4772C31.6898 36.9362 31.8954 35.3908 31.9097 34.2627C29.0079 36.009 25.6604 36.9344 22.2449 36.9344C18.8294 36.9344 15.4819 36.009 12.5801 34.2627Z" fill="white"/>
<path d="M12.5794 34.2627C12.5938 35.3908 12.7994 36.9362 13.7562 37.4772C15.6281 38.5362 18.9243 39.0657 22.2442 39.0657C22.3692 39.0657 22.4942 39.0657 22.6192 39.0657C19.428 39.0269 16.3068 38.4986 14.5069 37.4796C13.67 37.0065 13.4081 35.7627 13.3462 34.7037C13.0863 34.5632 12.8302 34.417 12.5781 34.2651L12.5794 34.2627Z" fill="#A930FC"/>
<path d="M31.9089 34.2627C31.8946 35.3908 31.6889 36.9362 30.7321 37.4772C28.8571 38.5362 25.5641 39.0657 22.2441 39.0657C22.1192 39.0657 21.9942 39.0657 21.8691 39.0657C25.0603 39.0269 28.1815 38.4986 29.9808 37.4796C30.8183 37.0065 31.0802 35.7627 31.1421 34.7037C31.4012 34.5615 31.6568 34.4145 31.9089 34.2627Z" fill="#50F9D1"/>
<path fill-rule="evenodd" clip-rule="evenodd" d="M52.3398 26.3262H61.2251V23.4687H56.1386V15.3955H52.3398V26.3262ZM67.5832 26.5757C71.0441 26.5757 73.0724 24.6866 73.0724 21.4073V15.3955H69.338V21.2982C69.338 22.9684 68.6779 23.593 67.6154 23.593C66.5534 23.593 65.8933 22.9684 65.8933 21.2982V15.3955H62.0945V21.4073C62.0945 24.6866 64.1228 26.5757 67.5832 26.5757ZM83.0036 26.3262H86.9316L82.006 15.3955H78.2711L73.346 26.3262H77.2091L77.9654 24.4212H82.2474L83.0036 26.3262ZM79.0118 21.7665L80.1068 19.018L81.201 21.7665H79.0118ZM94.2873 26.3262H98.344L95.9778 22.9531C97.3298 22.282 98.1027 21.0946 98.1027 19.5175C98.1027 16.9886 96.1065 15.3955 92.9674 15.3955H87.543V26.3262H91.3418V23.5778H92.3725L94.2873 26.3262ZM94.2717 19.5175C94.2717 20.3144 93.7724 20.798 92.7261 20.798H91.3418V18.2371H92.7261C93.7724 18.2371 94.2717 18.7214 94.2717 19.5175ZM101.821 26.3262H105.62V18.2531H108.919V15.3955H98.521V18.2531H101.821V26.3262Z" fill="white"/>
</g>
<defs>
<clipPath id="clip0_108:3133">
<rect width="108.419" height="42" fill="white" transform="translate(0.5)"/>
</clipPath>
</defs>
</svg>
