<svg width="14" height="14" viewBox="0 0 14 14"  xmlns="http://www.w3.org/2000/svg"><path d="M12.833 6.16536L7.83301 6.16536L7.83301 1.16536C7.83301 0.944351 7.74521 0.732389 7.58893 0.576109C7.43265 0.419829 7.22069 0.332031 6.99967 0.332031C6.77866 0.332031 6.5667 0.419829 6.41042 0.576109C6.25414 0.732389 6.16634 0.944351 6.16634 1.16536L6.16634 6.16536L1.16634 6.16536C0.945327 6.16536 0.733366 6.25316 0.577086 6.40944C0.420805 6.56572 0.333008 6.77768 0.333008 6.9987C0.333008 7.21971 0.420805 7.43167 0.577086 7.58795C0.733366 7.74423 0.945327 7.83203 1.16634 7.83203L6.16634 7.83203L6.16634 12.832C6.16634 13.053 6.25414 13.265 6.41042 13.4213C6.5667 13.5776 6.77866 13.6654 6.99967 13.6654C7.22069 13.6654 7.43265 13.5776 7.58893 13.4213C7.74521 13.265 7.83301 13.053 7.83301 12.832L7.83301 7.83203L12.833 7.83203C13.054 7.83203 13.266 7.74423 13.4223 7.58795C13.5785 7.43167 13.6663 7.21971 13.6663 6.9987C13.6663 6.77768 13.5785 6.56572 13.4223 6.40944C13.266 6.25316 13.054 6.16536 12.833 6.16536Z" ></path></svg>